<svg xmlns="http://www.w3.org/2000/svg" viewBox="0 0 860 460" font-family="-apple-system, system-ui, Segoe UI, sans-serif">
<rect width="860" height="460" fill="#ffffff"/>
<text x="80" y="28" font-size="17" font-weight="600" fill="#0f172a">x402 repository velocity — new repos/month (name, description, or topic)</text>
<text x="80" y="48" font-size="12" fill="#64748b">Trailing 24 months · Source: GitHub Search API · CyberFuturo Index</text>
<line x1="80" y1="390.0" x2="830" y2="390.0" stroke="#e2e8f0" stroke-width="1"/>
<text x="70" y="394.0" font-size="11" fill="#64748b" text-anchor="end">0</text>
<line x1="80" y1="326.0" x2="830" y2="326.0" stroke="#e2e8f0" stroke-width="1"/>
<text x="70" y="330.0" font-size="11" fill="#64748b" text-anchor="end">400</text>
<line x1="80" y1="262.0" x2="830" y2="262.0" stroke="#e2e8f0" stroke-width="1"/>
<text x="70" y="266.0" font-size="11" fill="#64748b" text-anchor="end">800</text>
<line x1="80" y1="198.0" x2="830" y2="198.0" stroke="#e2e8f0" stroke-width="1"/>
<text x="70" y="202.0" font-size="11" fill="#64748b" text-anchor="end">1,200</text>
<line x1="80" y1="134.0" x2="830" y2="134.0" stroke="#e2e8f0" stroke-width="1"/>
<text x="70" y="138.0" font-size="11" fill="#64748b" text-anchor="end">1,600</text>
<line x1="80" y1="70.0" x2="830" y2="70.0" stroke="#e2e8f0" stroke-width="1"/>
<text x="70" y="74.0" font-size="11" fill="#64748b" text-anchor="end">2,000</text>
<line x1="80" y1="390" x2="830" y2="390" stroke="#94a3b8" stroke-width="1"/>
<text x="80.0" y="408" font-size="11" fill="#64748b" text-anchor="middle">2024-07</text>
<text x="177.8" y="408" font-size="11" fill="#64748b" text-anchor="middle">2024-10</text>
<text x="275.7" y="408" font-size="11" fill="#64748b" text-anchor="middle">2025-01</text>
<text x="373.5" y="408" font-size="11" fill="#64748b" text-anchor="middle">2025-04</text>
<text x="471.3" y="408" font-size="11" fill="#64748b" text-anchor="middle">2025-07</text>
<text x="569.1" y="408" font-size="11" fill="#64748b" text-anchor="middle">2025-10</text>
<text x="667.0" y="408" font-size="11" fill="#64748b" text-anchor="middle">2026-01</text>
<text x="764.8" y="408" font-size="11" fill="#64748b" text-anchor="middle">2026-04</text>
<text x="830.0" y="408" font-size="11" fill="#64748b" text-anchor="middle">2026-06</text>
<polyline fill="none" stroke="#1e40af" stroke-width="2.5" stroke-linejoin="round" stroke-linecap="round" points="80.0,390.0 112.6,389.5 145.2,390.0 177.8,389.8 210.4,390.0 243.0,389.8 275.7,390.0 308.3,389.7 340.9,389.7 373.5,389.5 406.1,384.1 438.7,383.4 471.3,384.6 503.9,384.4 536.5,378.6 569.1,316.4 601.7,281.2 634.3,328.9 667.0,311.6 699.6,248.6 732.2,241.0 764.8,215.6 797.4,245.5 830.0,230.6"/>
<circle cx="80.0" cy="390.0" r="3.5" fill="#1e40af"/>
<circle cx="112.6" cy="389.5" r="3.5" fill="#1e40af"/>
<circle cx="145.2" cy="390.0" r="3.5" fill="#1e40af"/>
<circle cx="177.8" cy="389.8" r="3.5" fill="#1e40af"/>
<circle cx="210.4" cy="390.0" r="3.5" fill="#1e40af"/>
<circle cx="243.0" cy="389.8" r="3.5" fill="#1e40af"/>
<circle cx="275.7" cy="390.0" r="3.5" fill="#1e40af"/>
<circle cx="308.3" cy="389.7" r="3.5" fill="#1e40af"/>
<circle cx="340.9" cy="389.7" r="3.5" fill="#1e40af"/>
<circle cx="373.5" cy="389.5" r="3.5" fill="#1e40af"/>
<circle cx="406.1" cy="384.1" r="3.5" fill="#1e40af"/>
<circle cx="438.7" cy="383.4" r="3.5" fill="#1e40af"/>
<circle cx="471.3" cy="384.6" r="3.5" fill="#1e40af"/>
<circle cx="503.9" cy="384.4" r="3.5" fill="#1e40af"/>
<circle cx="536.5" cy="378.6" r="3.5" fill="#1e40af"/>
<circle cx="569.1" cy="316.4" r="3.5" fill="#1e40af"/>
<circle cx="601.7" cy="281.2" r="3.5" fill="#1e40af"/>
<circle cx="634.3" cy="328.9" r="3.5" fill="#1e40af"/>
<circle cx="667.0" cy="311.6" r="3.5" fill="#1e40af"/>
<circle cx="699.6" cy="248.6" r="3.5" fill="#1e40af"/>
<circle cx="732.2" cy="241.0" r="3.5" fill="#1e40af"/>
<circle cx="764.8" cy="215.6" r="3.5" fill="#1e40af"/>
<circle cx="797.4" cy="245.5" r="3.5" fill="#1e40af"/>
<circle cx="830.0" cy="230.6" r="3.5" fill="#1e40af"/>
<text x="20" y="230.0" font-size="11" fill="#64748b" text-anchor="middle" transform="rotate(-90 20 230.0)">new repos / month</text>
<text x="80" y="438" font-size="12" fill="#0f172a" font-weight="500">2026-06: 996 · 2024-07 was 0</text>
<text x="80" y="452" font-size="10" fill="#94a3b8">cyberfuturo.com — how fast the future is arriving, by the numbers</text>
</svg>