<svg xmlns="http://www.w3.org/2000/svg" viewBox="0 0 860 460" font-family="-apple-system, system-ui, Segoe UI, sans-serif">
<rect width="860" height="460" fill="#ffffff"/>
<text x="80" y="28" font-size="17" font-weight="600" fill="#0f172a">x402 repository velocity — new repos/month (name, description, or topic)</text>
<text x="80" y="48" font-size="12" fill="#64748b">Trailing 24 months · Source: GitHub Search API · CyberFuturo Index</text>
<line x1="80" y1="390.0" x2="830" y2="390.0" stroke="#e2e8f0" stroke-width="1"/>
<text x="70" y="394.0" font-size="11" fill="#64748b" text-anchor="end">0</text>
<line x1="80" y1="326.0" x2="830" y2="326.0" stroke="#e2e8f0" stroke-width="1"/>
<text x="70" y="330.0" font-size="11" fill="#64748b" text-anchor="end">400</text>
<line x1="80" y1="262.0" x2="830" y2="262.0" stroke="#e2e8f0" stroke-width="1"/>
<text x="70" y="266.0" font-size="11" fill="#64748b" text-anchor="end">800</text>
<line x1="80" y1="198.0" x2="830" y2="198.0" stroke="#e2e8f0" stroke-width="1"/>
<text x="70" y="202.0" font-size="11" fill="#64748b" text-anchor="end">1,200</text>
<line x1="80" y1="134.0" x2="830" y2="134.0" stroke="#e2e8f0" stroke-width="1"/>
<text x="70" y="138.0" font-size="11" fill="#64748b" text-anchor="end">1,600</text>
<line x1="80" y1="70.0" x2="830" y2="70.0" stroke="#e2e8f0" stroke-width="1"/>
<text x="70" y="74.0" font-size="11" fill="#64748b" text-anchor="end">2,000</text>
<line x1="80" y1="390" x2="830" y2="390" stroke="#94a3b8" stroke-width="1"/>
<text x="80.0" y="408" font-size="11" fill="#64748b" text-anchor="middle">2024-08</text>
<text x="177.8" y="408" font-size="11" fill="#64748b" text-anchor="middle">2024-11</text>
<text x="275.7" y="408" font-size="11" fill="#64748b" text-anchor="middle">2025-02</text>
<text x="373.5" y="408" font-size="11" fill="#64748b" text-anchor="middle">2025-05</text>
<text x="471.3" y="408" font-size="11" fill="#64748b" text-anchor="middle">2025-08</text>
<text x="569.1" y="408" font-size="11" fill="#64748b" text-anchor="middle">2025-11</text>
<text x="667.0" y="408" font-size="11" fill="#64748b" text-anchor="middle">2026-02</text>
<text x="764.8" y="408" font-size="11" fill="#64748b" text-anchor="middle">2026-05</text>
<text x="830.0" y="408" font-size="11" fill="#64748b" text-anchor="middle">2026-07</text>
<polyline fill="none" stroke="#1e40af" stroke-width="2.5" stroke-linejoin="round" stroke-linecap="round" points="80.0,389.5 112.6,390.0 145.2,389.8 177.8,390.0 210.4,389.8 243.0,390.0 275.7,389.7 308.3,389.7 340.9,389.5 373.5,384.1 406.1,383.4 438.7,384.7 471.3,384.4 503.9,378.5 536.5,316.6 569.1,281.4 601.7,328.2 634.3,310.8 667.0,249.0 699.6,240.2 732.2,216.2 764.8,244.6 797.4,229.2 830.0,200.9"/>
<circle cx="80.0" cy="389.5" r="3.5" fill="#1e40af"/>
<circle cx="112.6" cy="390.0" r="3.5" fill="#1e40af"/>
<circle cx="145.2" cy="389.8" r="3.5" fill="#1e40af"/>
<circle cx="177.8" cy="390.0" r="3.5" fill="#1e40af"/>
<circle cx="210.4" cy="389.8" r="3.5" fill="#1e40af"/>
<circle cx="243.0" cy="390.0" r="3.5" fill="#1e40af"/>
<circle cx="275.7" cy="389.7" r="3.5" fill="#1e40af"/>
<circle cx="308.3" cy="389.7" r="3.5" fill="#1e40af"/>
<circle cx="340.9" cy="389.5" r="3.5" fill="#1e40af"/>
<circle cx="373.5" cy="384.1" r="3.5" fill="#1e40af"/>
<circle cx="406.1" cy="383.4" r="3.5" fill="#1e40af"/>
<circle cx="438.7" cy="384.7" r="3.5" fill="#1e40af"/>
<circle cx="471.3" cy="384.4" r="3.5" fill="#1e40af"/>
<circle cx="503.9" cy="378.5" r="3.5" fill="#1e40af"/>
<circle cx="536.5" cy="316.6" r="3.5" fill="#1e40af"/>
<circle cx="569.1" cy="281.4" r="3.5" fill="#1e40af"/>
<circle cx="601.7" cy="328.2" r="3.5" fill="#1e40af"/>
<circle cx="634.3" cy="310.8" r="3.5" fill="#1e40af"/>
<circle cx="667.0" cy="249.0" r="3.5" fill="#1e40af"/>
<circle cx="699.6" cy="240.2" r="3.5" fill="#1e40af"/>
<circle cx="732.2" cy="216.2" r="3.5" fill="#1e40af"/>
<circle cx="764.8" cy="244.6" r="3.5" fill="#1e40af"/>
<circle cx="797.4" cy="229.2" r="3.5" fill="#1e40af"/>
<circle cx="830.0" cy="200.9" r="3.5" fill="#1e40af"/>
<text x="20" y="230.0" font-size="11" fill="#64748b" text-anchor="middle" transform="rotate(-90 20 230.0)">new repos / month</text>
<text x="80" y="438" font-size="12" fill="#0f172a" font-weight="500">2026-07: 1,182 · +39300% vs 2024-08</text>
<text x="80" y="452" font-size="10" fill="#94a3b8">cyberfuturo.com — how fast the future is arriving, by the numbers</text>
</svg>