<svg xmlns="http://www.w3.org/2000/svg" viewBox="0 0 860 460" font-family="-apple-system, system-ui, Segoe UI, sans-serif">
<rect width="860" height="460" fill="#ffffff"/>
<text x="80" y="28" font-size="17" font-weight="600" fill="#0f172a">arXiv AI research velocity — monthly submissions (cs.AI OR cs.LG)</text>
<text x="80" y="48" font-size="12" fill="#64748b">Trailing 24 months · Source: arXiv API · CyberFuturo Index</text>
<line x1="80" y1="390.0" x2="830" y2="390.0" stroke="#e2e8f0" stroke-width="1"/>
<text x="70" y="394.0" font-size="11" fill="#64748b" text-anchor="end">0</text>
<line x1="80" y1="326.0" x2="830" y2="326.0" stroke="#e2e8f0" stroke-width="1"/>
<text x="70" y="330.0" font-size="11" fill="#64748b" text-anchor="end">4,000</text>
<line x1="80" y1="262.0" x2="830" y2="262.0" stroke="#e2e8f0" stroke-width="1"/>
<text x="70" y="266.0" font-size="11" fill="#64748b" text-anchor="end">8,000</text>
<line x1="80" y1="198.0" x2="830" y2="198.0" stroke="#e2e8f0" stroke-width="1"/>
<text x="70" y="202.0" font-size="11" fill="#64748b" text-anchor="end">12,000</text>
<line x1="80" y1="134.0" x2="830" y2="134.0" stroke="#e2e8f0" stroke-width="1"/>
<text x="70" y="138.0" font-size="11" fill="#64748b" text-anchor="end">16,000</text>
<line x1="80" y1="70.0" x2="830" y2="70.0" stroke="#e2e8f0" stroke-width="1"/>
<text x="70" y="74.0" font-size="11" fill="#64748b" text-anchor="end">20,000</text>
<line x1="80" y1="390" x2="830" y2="390" stroke="#94a3b8" stroke-width="1"/>
<text x="80.0" y="408" font-size="11" fill="#64748b" text-anchor="middle">2024-07</text>
<text x="177.8" y="408" font-size="11" fill="#64748b" text-anchor="middle">2024-10</text>
<text x="275.7" y="408" font-size="11" fill="#64748b" text-anchor="middle">2025-01</text>
<text x="373.5" y="408" font-size="11" fill="#64748b" text-anchor="middle">2025-04</text>
<text x="471.3" y="408" font-size="11" fill="#64748b" text-anchor="middle">2025-07</text>
<text x="569.1" y="408" font-size="11" fill="#64748b" text-anchor="middle">2025-10</text>
<text x="667.0" y="408" font-size="11" fill="#64748b" text-anchor="middle">2026-01</text>
<text x="764.8" y="408" font-size="11" fill="#64748b" text-anchor="middle">2026-04</text>
<text x="830.0" y="408" font-size="11" fill="#64748b" text-anchor="middle">2026-06</text>
<polyline fill="none" stroke="#1e40af" stroke-width="2.5" stroke-linejoin="round" stroke-linecap="round" points="80.0,317.6 112.6,326.3 145.2,316.6 177.8,279.5 210.4,314.3 243.0,307.2 275.7,319.2 308.3,288.3 340.9,297.3 373.5,311.5 406.1,263.8 438.7,287.9 471.3,300.1 503.9,295.7 536.5,279.9 569.1,264.7 601.7,289.1 634.3,302.6 667.0,285.6 699.6,272.5 732.2,266.5 764.8,270.7 797.4,214.2 830.0,259.1"/>
<circle cx="80.0" cy="317.6" r="3.5" fill="#1e40af"/>
<circle cx="112.6" cy="326.3" r="3.5" fill="#1e40af"/>
<circle cx="145.2" cy="316.6" r="3.5" fill="#1e40af"/>
<circle cx="177.8" cy="279.5" r="3.5" fill="#1e40af"/>
<circle cx="210.4" cy="314.3" r="3.5" fill="#1e40af"/>
<circle cx="243.0" cy="307.2" r="3.5" fill="#1e40af"/>
<circle cx="275.7" cy="319.2" r="3.5" fill="#1e40af"/>
<circle cx="308.3" cy="288.3" r="3.5" fill="#1e40af"/>
<circle cx="340.9" cy="297.3" r="3.5" fill="#1e40af"/>
<circle cx="373.5" cy="311.5" r="3.5" fill="#1e40af"/>
<circle cx="406.1" cy="263.8" r="3.5" fill="#1e40af"/>
<circle cx="438.7" cy="287.9" r="3.5" fill="#1e40af"/>
<circle cx="471.3" cy="300.1" r="3.5" fill="#1e40af"/>
<circle cx="503.9" cy="295.7" r="3.5" fill="#1e40af"/>
<circle cx="536.5" cy="279.9" r="3.5" fill="#1e40af"/>
<circle cx="569.1" cy="264.7" r="3.5" fill="#1e40af"/>
<circle cx="601.7" cy="289.1" r="3.5" fill="#1e40af"/>
<circle cx="634.3" cy="302.6" r="3.5" fill="#1e40af"/>
<circle cx="667.0" cy="285.6" r="3.5" fill="#1e40af"/>
<circle cx="699.6" cy="272.5" r="3.5" fill="#1e40af"/>
<circle cx="732.2" cy="266.5" r="3.5" fill="#1e40af"/>
<circle cx="764.8" cy="270.7" r="3.5" fill="#1e40af"/>
<circle cx="797.4" cy="214.2" r="3.5" fill="#1e40af"/>
<circle cx="830.0" cy="259.1" r="3.5" fill="#1e40af"/>
<text x="20" y="230.0" font-size="11" fill="#64748b" text-anchor="middle" transform="rotate(-90 20 230.0)">papers / month</text>
<text x="80" y="438" font-size="12" fill="#0f172a" font-weight="500">2026-06: 8,184 papers · +81% vs 2024-07</text>
<text x="80" y="452" font-size="10" fill="#94a3b8">cyberfuturo.com — how fast the future is arriving, by the numbers</text>
</svg>